<svg width="85" height="112" viewBox="0 0 85 112" fill="none" xmlns="http://www.w3.org/2000/svg">
<g filter="url(#filter0_d)">
<ellipse cx="41.8" cy="78.3864" rx="29.8" ry="3.38636" fill="white"/>
</g>
<path d="M80.7712 77.3064H17.6398C10.8525 77.3064 5.35028 71.8042 5.35028 65.0169V62.66C5.35028 55.8726 10.8525 50.3704 17.6398 50.3704H80.7712V77.3064Z" fill="#FFF1CD"/>
<path d="M14.7779 53.064H8.04391V74.6128H14.7779V53.064Z" fill="#425479"/>
<path d="M74.3739 46.33H2.65674V27.4748H74.3739C76.4194 27.4748 78.0776 29.133 78.0776 31.1785V42.6263C78.0776 44.6717 76.4194 46.33 74.3739 46.33Z" fill="#FFF1CD"/>
<path d="M80.7712 3.23232H12.0843V23.4343H80.7712V3.23232Z" fill="#FFF1CD"/>
<path d="M80.808 80H18.8552C9.94371 80 2.69354 72.7505 2.69354 63.8384C2.69354 54.9263 9.94371 47.6768 18.8552 47.6768H80.808C82.2956 47.6768 83.5016 48.8828 83.5016 50.3704C83.5016 51.8579 82.2956 53.064 80.808 53.064H18.8552C12.9142 53.064 8.08075 57.8975 8.08075 63.8384C8.08075 69.7793 12.9142 74.6128 18.8552 74.6128H80.808C82.2956 74.6128 83.5016 75.8188 83.5016 77.3064C83.5016 78.7939 82.2956 80 80.808 80Z" fill="#279D59"/>
<path d="M72.7273 48.2155H1.3468C0.602357 48.2155 0 47.6131 0 46.8687C0 46.1242 0.602357 45.5219 1.3468 45.5219H72.7273C74.9552 45.5219 76.7677 43.7094 76.7677 41.4815V33.4007C76.7677 31.1727 74.9552 29.3603 72.7273 29.3603H1.3468C0.602357 29.3603 0 28.7579 0 28.0135C0 27.269 0.602357 26.6666 1.3468 26.6666H72.7273C76.4402 26.6666 79.4613 29.6877 79.4613 33.4007V41.4815C79.4613 45.1944 76.4402 48.2155 72.7273 48.2155Z" fill="#44CEDB"/>
<path d="M80.7712 7.53939H18.8183C18.0745 7.53939 17.4715 7.29878 17.4715 7.00202C17.4715 6.70525 18.0745 6.46465 18.8183 6.46465H80.7712V7.53939Z" fill="#FFCC7F"/>
<path d="M80.7712 12.9265H18.8183C18.0745 12.9265 17.4715 12.6859 17.4715 12.3892C17.4715 12.0924 18.0745 11.8518 18.8183 11.8518H80.7712V12.9265Z" fill="#FFCC7F"/>
<path d="M80.7712 18.3138H18.8183C18.0745 18.3138 17.4715 18.0732 17.4715 17.7765C17.4715 17.4797 18.0745 17.2391 18.8183 17.2391H80.7712V18.3138Z" fill="#FFCC7F"/>
<path d="M2.65674 30.7071H72.6904C73.4342 30.7071 74.0372 30.9477 74.0372 31.2445C74.0372 31.5412 73.4342 31.7818 72.6904 31.7818H2.65674C2.65674 31.7818 2.65674 30.7071 2.65674 30.7071Z" fill="#FFCC7F"/>
<path d="M2.65674 36.0942H72.6904C73.4342 36.0942 74.0372 36.3348 74.0372 36.6316C74.0372 36.9284 73.4342 37.169 72.6904 37.169H2.65674C2.65674 37.169 2.65674 36.0942 2.65674 36.0942Z" fill="#FFCC7F"/>
<path d="M2.65674 41.4815H72.6904C73.4342 41.4815 74.0372 41.7221 74.0372 42.0188C74.0372 42.3156 73.4342 42.5562 72.6904 42.5562H2.65674C2.65674 42.5562 2.65674 41.4815 2.65674 41.4815Z" fill="#FFCC7F"/>
<path d="M82.155 26.936H17.5085C13.0524 26.936 9.42767 23.3113 9.42767 18.8552V8.08081C9.42767 3.62475 13.0524 0 17.5085 0H82.155C83.6425 0 84.8486 1.20606 84.8486 2.6936C84.8486 4.18115 83.6425 5.38721 82.155 5.38721H17.5085C16.023 5.38721 14.8149 6.59529 14.8149 8.08081V18.8552C14.8149 20.3401 16.023 21.5488 17.5085 21.5488H82.155C83.6425 21.5488 84.8486 22.7549 84.8486 24.2424C84.8486 25.73 83.6425 26.936 82.155 26.936Z" fill="#FF4970"/>
<path d="M18.8183 71.1111C18.0739 71.1111 17.4715 71.3515 17.4715 71.6485C17.4715 71.9455 18.0739 72.1859 18.8183 72.1859H80.7712V71.1111H18.8183Z" fill="#FFCC7F"/>
<path d="M18.8183 65.7239C18.0739 65.7239 17.4715 65.9642 17.4715 66.2613C17.4715 66.5583 18.0739 66.7987 18.8183 66.7987H80.7712V65.7239H18.8183Z" fill="#FFCC7F"/>
<path d="M18.8183 60.3367C18.0739 60.3367 17.4715 60.577 17.4715 60.874C17.4715 61.1711 18.0739 61.4114 18.8183 61.4114H80.7712V60.3367H18.8183Z" fill="#FFCC7F"/>
<path d="M18.8183 54.9495C18.0739 54.9495 17.4715 55.1898 17.4715 55.4869C17.4715 55.7839 18.0739 56.0243 18.8183 56.0243H80.7712V54.9495H18.8183Z" fill="#FFCC7F"/>
<defs>
<filter id="filter0_d" x="2" y="75" width="79.6" height="36.7727" filterUnits="userSpaceOnUse" color-interpolation-filters="sRGB">
<feFlood flood-opacity="0" result="BackgroundImageFix"/>
<feColorMatrix in="SourceAlpha" type="matrix" values="0 0 0 0 0 0 0 0 0 0 0 0 0 0 0 0 0 0 127 0"/>
<feOffset dy="20"/>
<feGaussianBlur stdDeviation="5"/>
<feColorMatrix type="matrix" values="0 0 0 0 0.647059 0 0 0 0 0.72549 0 0 0 0 0.788235 0 0 0 1 0"/>
<feBlend mode="normal" in2="BackgroundImageFix" result="effect1_dropShadow"/>
<feBlend mode="normal" in="SourceGraphic" in2="effect1_dropShadow" result="shape"/>
</filter>
</defs>
</svg>
