<svg width="80" height="112" viewBox="0 0 80 112" fill="none" xmlns="http://www.w3.org/2000/svg">
<g filter="url(#filter0_d)">
<ellipse cx="39.8" cy="78.3864" rx="29.8" ry="3.38636" fill="white"/>
</g>
<path d="M70.4232 68.3727L49.3368 36.3794V5H34.3368V36.3794L13.2503 68.3727C9.96371 73.3592 13.5401 80 19.5125 80H64.1611C70.1334 80 73.71 73.3592 70.4232 68.3727Z" fill="url(#paint0_radial)"/>
<path d="M67.292 70.4364L58.3125 56.8122C58.0817 56.4612 57.6887 56.25 57.2687 56.25H26.4047C25.9848 56.25 25.5917 56.4612 25.3609 56.8122L16.3814 70.4358C15.6075 71.6089 15.544 73.0456 16.2104 74.2767C16.8734 75.512 18.1087 76.25 19.5125 76.25H64.1609C65.5647 76.25 66.8001 75.512 67.4617 74.2798C68.1295 73.0456 68.0661 71.6089 67.292 70.4364Z" fill="url(#paint1_radial)"/>
<path d="M49.3368 5H34.3368C32.9561 5 31.8368 3.88078 31.8368 2.5C31.8368 1.11922 32.9561 0 34.3368 0H49.3368C50.7176 0 51.8368 1.11922 51.8368 2.5C51.8368 3.88078 50.7175 5 49.3368 5Z" fill="#425479"/>
<path d="M53.0868 70C54.4676 70 55.5868 68.8807 55.5868 67.5C55.5868 66.1193 54.4676 65 53.0868 65C51.7061 65 50.5868 66.1193 50.5868 67.5C50.5868 68.8807 51.7061 70 53.0868 70Z" fill="#FF4970"/>
<path d="M45.5904 65C45.2523 65 44.9398 64.8621 44.7017 64.6375C44.4648 64.4 44.3403 64.0747 44.3403 63.75C44.3403 63.4247 44.4648 63.1 44.7017 62.8625C45.1643 62.3999 46.0017 62.3999 46.4643 62.8625C46.7023 63.1 46.8403 63.4125 46.8403 63.75C46.8403 64.0875 46.7023 64.4 46.4643 64.6375C46.2398 64.8621 45.9151 65 45.5904 65Z" fill="#FF4970"/>
<path d="M38.0526 51.25C37.7145 51.25 37.402 51.112 37.1639 50.8875C36.927 50.65 36.8025 50.3247 36.8025 50C36.8025 49.6747 36.927 49.35 37.1639 49.1125C37.6265 48.6499 38.4517 48.6499 38.9265 49.1125C39.1645 49.35 39.3025 49.6747 39.3025 50C39.3025 50.3247 39.1645 50.65 38.94 50.8875C38.702 51.112 38.3773 51.25 38.0526 51.25Z" fill="white"/>
<g opacity="0.5">
<path d="M45.5526 41.25C45.2145 41.25 44.902 41.112 44.6639 40.8875C44.427 40.65 44.3025 40.3247 44.3025 40C44.3025 39.6747 44.427 39.35 44.6639 39.1125C45.1265 38.6499 45.9517 38.6499 46.4265 39.1125C46.6645 39.35 46.8025 39.6747 46.8025 40C46.8025 40.3247 46.6645 40.65 46.4265 40.8875C46.202 41.112 45.8773 41.25 45.5526 41.25Z" fill="white"/>
</g>
<g opacity="0.5">
<path d="M38.0526 32.5C37.7145 32.5 37.3898 32.362 37.1639 32.1247C36.927 31.9 36.8025 31.5747 36.8025 31.25C36.8025 30.9247 36.927 30.6 37.1639 30.3625C37.6265 29.8999 38.4639 29.8999 38.9265 30.3625C39.1645 30.6 39.3025 30.9247 39.3025 31.25C39.3025 31.5747 39.1645 31.9 38.9265 32.1375C38.702 32.362 38.3773 32.5 38.0526 32.5Z" fill="white"/>
</g>
<path d="M38.0526 72.4844C37.7145 72.4844 37.402 72.3464 37.1639 72.1219C36.927 71.8844 36.8025 71.5591 36.8025 71.2344C36.8025 70.9091 36.927 70.5844 37.1639 70.3469C37.6265 69.8842 38.4639 69.8842 38.9265 70.3469C39.1645 70.5844 39.3025 70.9091 39.3025 71.2344C39.3025 71.5591 39.1645 71.8844 38.9265 72.1219C38.702 72.3464 38.3773 72.4844 38.0526 72.4844Z" fill="#FF4970"/>
<defs>
<filter id="filter0_d" x="0" y="75" width="79.6" height="36.7727" filterUnits="userSpaceOnUse" color-interpolation-filters="sRGB">
<feFlood flood-opacity="0" result="BackgroundImageFix"/>
<feColorMatrix in="SourceAlpha" type="matrix" values="0 0 0 0 0 0 0 0 0 0 0 0 0 0 0 0 0 0 127 0"/>
<feOffset dy="20"/>
<feGaussianBlur stdDeviation="5"/>
<feColorMatrix type="matrix" values="0 0 0 0 0.647059 0 0 0 0 0.72549 0 0 0 0 0.788235 0 0 0 1 0"/>
<feBlend mode="normal" in2="BackgroundImageFix" result="effect1_dropShadow"/>
<feBlend mode="normal" in="SourceGraphic" in2="effect1_dropShadow" result="shape"/>
</filter>
<radialGradient id="paint0_radial" cx="0" cy="0" r="1" gradientUnits="userSpaceOnUse" gradientTransform="translate(41.5646 60) rotate(90) scale(29.6 23.5512)">
<stop offset="0.20648" stop-color="white"/>
<stop offset="1" stop-color="#9BF6FF"/>
</radialGradient>
<radialGradient id="paint1_radial" cx="0" cy="0" r="1" gradientUnits="userSpaceOnUse" gradientTransform="translate(41.8367 66.25) rotate(90) scale(10 26.0844)">
<stop stop-color="#FFB900"/>
<stop offset="1" stop-color="#FF4970"/>
</radialGradient>
</defs>
</svg>
